<?xml version="1.0" encoding="UTF-8"?>
<svg id="Layer_1" xmlns="http://www.w3.org/2000/svg" version="1.1" viewBox="0 0 800 800">
  <!-- Generator: Adobe Illustrator 29.8.1, SVG Export Plug-In . SVG Version: 2.1.1 Build 2)  -->
  <defs>
    <style>
      .st0 {
        fill-rule: evenodd;
      }

      .st0, .st1 {
        fill: #0f0f0f;
        stroke-width: 11px;
      }

      .st0, .st1, .st2 {
        stroke: #000;
        stroke-miterlimit: 10;
      }

      .st3 {
        opacity: .4;
      }

      .st3, .st4 {
        display: none;
      }

      .st2 {
        fill: none;
        stroke-width: 51px;
      }
    </style>
  </defs>
  <path class="st3" d="M409.37,186.05c23.39-.36,46.61-.17,69.82-.36.77,29.02,12.55,55.14,31.28,74.49l-.03-.03c20.16,18.16,46.4,29.94,75.32,31.94l.4.03v71.96c-27.32-.69-53.01-6.99-76.17-17.82l1.17.49c-11.2-5.39-20.68-10.92-29.68-17.09l.74.49c-.17,52.14.17,104.28-.36,156.24-1.47,26.48-10.27,50.63-24.39,70.79l.29-.44c-23.61,33.81-61.84,56-105.32,57.31h-.2c-1.76.09-3.83.13-5.92.13-24.72,0-47.83-6.89-67.52-18.85l.57.33c-35.84-21.56-60.56-58.46-65.13-101.37l-.06-.59c-.36-8.93-.53-17.86-.17-26.61,7-68.29,64.21-121.11,133.76-121.11,7.82,0,15.47.67,22.92,1.94l-.8-.11c.36,26.42-.71,52.85-.71,79.28-6.04-2.19-13.02-3.46-20.29-3.46-26.69,0-49.4,17.06-57.8,40.88l-.13.43c-1.9,6.1-3,13.12-3,20.38,0,2.94.19,5.86.53,8.72l-.03-.34c4.74,29.24,29.81,51.3,60.03,51.3.87,0,1.73-.01,2.59-.06h-.13c20.9-.63,39.05-11.87,49.31-28.49l.14-.26c3.82-5.32,6.43-11.75,7.3-18.73v-.2c1.8-31.96,1.09-63.74,1.26-95.71.17-71.96-.17-143.75.36-215.52l.06.04Z"/>
  <circle class="st2" cx="400" cy="400" r="344.42"/>
  <g id="_x37_935ec95c421cee6d86eb22ecd12951c" class="st4">
    <path d="M362.14,489.7c-14.61,68.49-32.45,134.15-85.29,168.45-16.33-103.52,23.94-181.26,42.65-263.81-31.89-47.99,3.83-144.57,71.07-120.78,82.74,29.27-71.64,178.43,31.98,197.06,108.22,19.45,152.4-167.92,85.31-228.84-96.96-87.98-282.23-2-259.45,123.96,5.54,30.79,41.11,40.13,14.22,82.64-62.05-12.32-80.57-56.08-78.19-114.43,3.84-95.51,95.96-162.38,188.36-171.63,116.86-11.7,226.53,38.36,241.67,136.66,17.06,110.96-52.74,231.13-177.7,222.49-33.87-2.36-48.09-17.37-74.63-31.79Z"/>
  </g>
  <g>
    <path class="st0" d="M400.63,503.85c57.36,0,103.85-46.5,103.85-103.85s-46.5-103.85-103.85-103.85-103.85,46.5-103.85,103.85,46.5,103.85,103.85,103.85ZM400.63,469.23c38.24,0,69.23-31,69.23-69.23s-31-69.23-69.23-69.23-69.23,31-69.23,69.23,31,69.23,69.23,69.23Z"/>
    <path class="st1" d="M504.48,278.84c-9.56,0-17.31,7.75-17.31,17.31s7.75,17.31,17.31,17.31,17.31-7.75,17.31-17.31-7.75-17.31-17.31-17.31Z"/>
    <path class="st0" d="M221.55,266.31c-11.32,22.22-11.32,51.3-11.32,109.46v48.46c0,58.16,0,87.24,11.32,109.46,9.96,19.54,25.84,35.43,45.39,45.39,22.22,11.32,51.3,11.32,109.46,11.32h48.46c58.16,0,87.24,0,109.46-11.32,19.54-9.96,35.43-25.84,45.39-45.39,11.32-22.21,11.32-51.3,11.32-109.46v-48.46c0-58.16,0-87.24-11.32-109.46-9.96-19.54-25.84-35.43-45.39-45.39-22.21-11.32-51.3-11.32-109.46-11.32h-48.46c-58.16,0-87.24,0-109.46,11.32-19.54,9.96-35.43,25.84-45.39,45.39ZM424.86,244.22h-48.46c-29.65,0-49.81.03-65.39,1.3-15.18,1.24-22.94,3.49-28.35,6.25-13.03,6.64-23.62,17.23-30.26,30.26-2.76,5.41-5.01,13.18-6.25,28.35-1.27,15.58-1.3,35.74-1.3,65.39v48.46c0,29.65.03,49.81,1.3,65.39,1.24,15.18,3.49,22.94,6.25,28.35,6.64,13.03,17.23,23.62,30.26,30.26,5.41,2.76,13.18,5.01,28.35,6.25,15.58,1.27,35.74,1.3,65.39,1.3h48.46c29.65,0,49.81-.03,65.39-1.3,15.18-1.24,22.94-3.49,28.35-6.25,13.03-6.64,23.62-17.23,30.26-30.26,2.76-5.41,5.01-13.18,6.25-28.35,1.27-15.58,1.3-35.74,1.3-65.39v-48.46c0-29.65-.03-49.81-1.3-65.39-1.24-15.18-3.49-22.94-6.25-28.35-6.64-13.03-17.23-23.62-30.26-30.26-5.41-2.76-13.18-5.01-28.35-6.25-15.58-1.27-35.74-1.3-65.39-1.3Z"/>
  </g>
</svg>