<?xml version="1.0" encoding="UTF-8"?>
<svg id="Layer_1" xmlns="http://www.w3.org/2000/svg" version="1.1" viewBox="0 0 800 800">
  <!-- Generator: Adobe Illustrator 29.8.1, SVG Export Plug-In . SVG Version: 2.1.1 Build 2)  -->
  <defs>
    <style>
      .st0 {
        fill: none;
        stroke: #000;
        stroke-miterlimit: 10;
        stroke-width: 51px;
      }
    </style>
  </defs>
  <path d="M409.37,186.05c23.39-.36,46.61-.17,69.82-.36.77,29.02,12.55,55.14,31.28,74.49l-.03-.03c20.16,18.16,46.4,29.94,75.32,31.94l.4.03v71.96c-27.32-.69-53.01-6.99-76.17-17.82l1.17.49c-11.2-5.39-20.68-10.92-29.68-17.09l.74.49c-.17,52.14.17,104.28-.36,156.24-1.47,26.48-10.27,50.63-24.39,70.79l.29-.44c-23.61,33.81-61.84,56-105.32,57.31h-.2c-1.76.09-3.83.13-5.92.13-24.72,0-47.83-6.89-67.52-18.85l.57.33c-35.84-21.56-60.56-58.46-65.13-101.37l-.06-.59c-.36-8.93-.53-17.86-.17-26.61,7-68.29,64.21-121.11,133.76-121.11,7.82,0,15.47.67,22.92,1.94l-.8-.11c.36,26.42-.71,52.85-.71,79.28-6.04-2.19-13.02-3.46-20.29-3.46-26.69,0-49.4,17.06-57.8,40.88l-.13.43c-1.9,6.1-3,13.12-3,20.38,0,2.94.19,5.86.53,8.72l-.03-.34c4.74,29.24,29.81,51.3,60.03,51.3.87,0,1.73-.01,2.59-.06h-.13c20.9-.63,39.05-11.87,49.31-28.49l.14-.26c3.82-5.32,6.43-11.75,7.3-18.73v-.2c1.8-31.96,1.09-63.74,1.26-95.71.17-71.96-.17-143.75.36-215.52l.06.04Z"/>
  <circle class="st0" cx="400" cy="400" r="344.42"/>
</svg>