<?xml version="1.0" encoding="UTF-8"?>
<svg id="Layer_1" xmlns="http://www.w3.org/2000/svg" xmlns:serif="http://www.serif.com/" version="1.1" viewBox="0 0 800 800">
  <!-- Generator: Adobe Illustrator 29.8.1, SVG Export Plug-In . SVG Version: 2.1.1 Build 2)  -->
  <defs>
    <style>
      .st0 {
        fill: #e4d6ff;
      }

      .st1 {
        fill-rule: evenodd;
      }

      .st1, .st2 {
        fill: #6032a1;
      }
    </style>
  </defs>
  <circle class="st0" cx="400" cy="400" r="379.89"/>
  <ellipse class="st2" cx="400" cy="323.11" rx="105.89" ry="114.72"/>
  <ellipse class="st2" cx="400" cy="604.5" rx="176.49" ry="98.05"/>
  <path class="st1" d="M400,488.81c-62.88,0-118.51,17.54-153.07,43.73-26.42,20.01-41.07,45.27-41.07,71.95s14.65,51.96,41.07,71.97c34.56,26.19,90.19,43.73,153.07,43.73s118.51-17.54,153.07-43.73c26.42-20.01,41.07-45.27,41.07-71.97s-14.65-51.94-41.07-71.95c-34.56-26.19-90.19-43.73-153.07-43.73ZM400,524.11c54.01,0,102.06,14.08,131.77,36.57,16.41,12.46,27.07,27.23,27.07,43.82s-10.66,31.38-27.07,43.84c-29.7,22.48-77.76,36.57-131.77,36.57s-102.06-14.08-131.77-36.57c-16.41-12.46-27.07-27.23-27.07-43.84s10.66-31.36,27.07-43.82c29.7-22.48,77.76-36.57,131.77-36.57ZM400,190.74c-67.79,0-123.54,58.93-123.54,132.37s55.75,132.37,123.54,132.37,123.54-58.93,123.54-132.37-55.75-132.37-123.54-132.37ZM400,226.04c49.12,0,88.24,43.87,88.24,97.07s-39.13,97.07-88.24,97.07-88.24-43.87-88.24-97.07,39.13-97.07,88.24-97.07Z"/>
</svg>